<?xml version="1.0"?><svg xmlns="http://www.w3.org/2000/svg" version="1.1" viewBox="0 0 200 105.531"><rect id="Hintergrund" width="200" fill="none" height="105.531"/><g id="Wortmarke"><path id="G" d="M169.14,21.87h20.77V33.29a6.33,6.33,0,0,1-4.49,6c-3,.84-6,.65-9.34.65H162.2c-4.6.06-8.52.4-10.9-1.25a6.51,6.51,0,0,1-2.93-5.39V16.69c0-2.31,1.27-4,3-5.37,2.06-1.7,6.34-1.27,10.87-1.27h13.88c5.47,0,9.08,0,11.1,1.45C190.26,13.7,190,18,190,18H176.05c-.44-2.16-1.67-2.72-4.49-2.72H167.1c-3.06,0-4.2,1-4.18,2.82V31.36c0,1.59.23,2.29,1.47,2.89,1,.49,2.63.41,4.53.41h3.53c3.34,0,3.63-1.82,3.63-3.81V27.31h-6.94V21.87" fill="#e30613"/><path id="R" d="M114.39,15.33h6.29c2,0,3.52-.16,4.88.47A2.48,2.48,0,0,1,127,18.59a2.58,2.58,0,0,1-1.43,2.82c-1.45.63-2.5.46-4.88.46h-6.29V15.33ZM99.84,39.93V10.05h27.49c3.17,0,6.76-.26,9.34.94,2.92,1.37,4.51,2.94,4.51,6.22l0,.8c0,2.56-1.07,3.89-3.21,5.26s-4.71,1.57-9.69,1.57h6a11,11,0,0,1,4.87,1,4.11,4.11,0,0,1,2.07,3.32V39.93H126.62V30.47c0-.91.07-2.39-1.22-2.8s-2.29-.31-4.54-.36h-6.47V39.93H99.84" fill-rule="evenodd" fill="#e30613"/><path id="L" d="M59.76,39.93V10.05H74.31V32h19v8H59.76" fill="#e30613"/><path id="D" d="M37,22.27v5.4c0,.89.13,3.14-1.28,3.74-1.81.76-3.13.51-5,.54H24.54V18h6.24c1.83,0,3.14-.22,4.95.55C37.14,19.13,37,21.38,37,22.27Zm.7,17.65c3.78,0,7.91.32,10.62-1s3.21-4.78,3.21-6.58V17.67c0-1.81-.48-5.27-3.21-6.58s-6.83-1-10.62-1H10V39.93H37.71" fill-rule="evenodd" fill="#e30613"/></g><rect x="10" y="46.6" width="180" height="1.8" fill="#e30613"/><path fill="#e30613" d="M16.593871081367,58.108788305742q-2.2824938358577,1.120112715745-2.2824938358577,5.1884466361395t2.1345544205706,5.2941176470588q0.63402606551603,0.38041563930962,1.7752729834449,0.38041563930962q1.8598097921803,0,2.8531172948221-1.4159915463191q0.46495244804509-0.67629446988376,0.7502641775273-1.7647058823529t0.28531172948221-2.1028531172948q0-4.0366326171187-1.7752729834449-5.2835505459669q-0.9087706939063-0.65516026769989-1.9654808030997-0.65516026769989t-1.7752729834449,0.35928143712575z M10.951039098274,64.829464600211q-0.063402606551603-0.7185628742515-0.063402606551603-1.7435716801691t0.36984853821768-2.4938358576964t1.2363508277563-2.6100739697076q1.9232123987319-2.5783726664318,5.7273687918281-2.5783726664318q4.6072560760831,0,6.3613948573441,3.5505459668897q0.95103909827404,1.9232123987319,0.95103909827404,4.4487495597041t-1.1306798168369,4.6600915815428t-3.666784078901,2.9376541035576q-1.2046495244805,0.38041563930962-2.6417752729834,0.38041563930962q-3.2758013384995,0-5.3258189503346-2.0922860162029q-1.5639309616062-1.6061993659739-1.8175413878126-4.4593166607961z M27.816132441,62.948520605847q0-1.0355759070095-0.14793941528707-2.6629094751673l2.9376541035576,0l0.063402606551603,2.0500176118352q0.40154984149348-0.92990489609017,0.92990489609017-1.3525889397675q0.9087706939063-0.7185628742515,2.3670306445932-0.7185628742515l0.33814723494188,0l0,2.8108488904544q-0.38041563930962-0.042268404367735-0.73969707643536-0.042268404367735q-1.5005283550546,0.021134202183868-2.1345544205706,0.76083127861923q-0.33814723494188,0.40154984149348-0.41211694258542,0.91933779499824t-0.073969707643536,1.0250088059176l0,5.262416343783l-3.1278619232124,0l0-8.0521310320535z M40.021134202184,68.760426206411q0.28531172948221,0.10567101091934,0.85593518844664,0.10567101091934t1.0144417048256-0.063402606551603l0,2.0500176118352q-1.2257837266643,0.33814723494188-2.4092990489609,0.33814723494188q-2.0500176118352,0-2.7685804860867-1.120112715745q-0.40154984149348-0.63402606551603-0.40154984149348-1.754138781261l0-5.8541740049313l-2.0500176118352,0l0-2.071151814019l2.0500176118352,0l0-2.0922860162029l3.1067277210285-1.1412469179288l0,3.2335329341317l2.5361042620641,0l0,2.071151814019l-2.5361042620641,0l0,4.8185980979218q0,0.8453680873547,0.15850651637901,1.109545614653t0.44381824586122,0.36984853821768z M49.18281084889,63.223265234237q-0.12680521310321-1.2680521310321-1.5216625572385-1.2680521310321q-0.63402606551603,0-1.0567101091934,0.28531172948221t-0.42268404367735,0.80309968298697t0.38041563930962,0.70799577315956t1.0778443113772,0.38041563930962l1.9232123987319,0.52835505459669q2.8531172948221,0.7819654808031,2.8531172948221,2.9799225079253q0,1.5005283550546-1.2891863332159,2.5889397675238t-3.6456498767172,1.0884114124692t-3.6245156745333-1.3103205353998q-0.52835505459669-0.54948925678056-0.64459316660796-1.1306798168369t-0.13737231419514-0.96160619936597l2.9376541035576,0q0.042268404367735,0.61289186333216,0.33814723494188,0.9087706939063q0.54948925678056,0.54948925678056,1.4159915463191,0.54948925678056t1.2680521310321-0.39098274040155t0.40154984149348-0.8136667840789t-0.28531172948221-0.7185628742515t-1.1940824233885-0.54948925678056l-1.9443466009158-0.52835505459669q-1.0567101091934-0.27474462839028-1.5850651637901-0.67629446988376q-1.120112715745-0.86650228953857-1.120112715745-2.3458964424093t1.2997534343079-2.3775977456851t3.3709052483269-0.89820359281437q2.7263120817189,0,3.6984853821768,1.754138781261q0.31701303275801,0.59175766114829,0.35928143712575,1.3948573441353l-2.8531172948221,0z M57.953504755195,68.253205353998q0.42268404367735,0.40154984149348,1.2257837266643,0.40154984149348q1.3525889397675,0,1.9020781965481-1.3525889397675q0.27474462839028-0.67629446988376,0.27474462839028-1.8386755899965q0-3.1067277210285-2.1345544205706-3.1067277210285q-0.88763649172244,0-1.5216625572385,0.73969707643536t-0.63402606551603,2.5255371609722t0.88763649172244,2.6312081718915z M64.378302219091,70.894980626981q0,4.311377245509-5.1144769284959,4.311377245509q-1.9866150052836,0-2.8848185980979-0.42268404367735t-1.4265586474111-1.109545614653t-0.59175766114829-1.8915110954561l3.0010567101092,0q0.10567101091934,0.57062345896442,0.29587883057415,0.8453680873547q0.48608665022895,0.63402606551603,1.3842902430433,0.63402606551603t1.4265586474111-0.33814723494188q0.73969707643536-0.46495244804509,0.80309968298697-1.9232123987319q0.042268404367735-0.8453680873547,0.042268404367735-1.6696019725255q-0.99330750264178,1.2680521310321-2.24022543149,1.4159915463191q-0.38041563930962,0.042268404367735-0.63402606551603,0.042268404367735q-2.1768228249384,0-3.3392039450511-1.5639309616062t-1.1623811201127-3.7090524832688t1.1940824233885-3.6984853821768t3.3709052483269-1.5533638605143q1.2680521310321,0,2.0922860162029,0.59175766114829q0.35928143712575,0.23247622402254,0.56005635787249,0.49665375132089t0.32758013384995,0.43325114476928l0.10567101091934-1.4159915463191l2.9376541035576,0q-0.14793941528707,1.4793941528707-0.14793941528707,2.6417752729834l0,7.8830574145826z M67.315956322649,62.948520605847q0-1.0355759070095-0.14793941528707-2.6629094751673l2.9376541035576,0l0.063402606551603,2.0500176118352q0.40154984149348-0.92990489609017,0.92990489609017-1.3525889397675q0.9087706939063-0.7185628742515,2.3670306445932-0.7185628742515l0.33814723494188,0l0,2.8108488904544q-0.38041563930962-0.042268404367735-0.73969707643536-0.042268404367735q-1.5005283550546,0.021134202183868-2.1345544205706,0.76083127861923q-0.33814723494188,0.40154984149348-0.41211694258542,0.91933779499824t-0.073969707643536,1.0250088059176l0,5.262416343783l-3.1278619232124,0l0-8.0521310320535z M84.709404719972,70.218686157098q0.063402606551603,0.63402606551603,0.08453680873547,0.7819654808031l-3.0433251144769,0l-0.10567101091934-1.4159915463191q-0.50722085241282,0.67629446988376-0.92990489609017,0.99330750264178q-0.95103909827404,0.69742867206763-2.1239873194787,0.69742867206763t-2.0183163085594-0.42268404367735q-1.8809439943642-0.95103909827404-1.9654808030997-3.1067277210285q-0.021134202183868-0.52835505459669-0.021134202183868-0.7819654808031l0-6.6361394857344l3.1701303275801,0l0,6.3613948573441q0,1.0567101091934,0.16907361747094,1.4793941528707q0.38041563930962,0.86650228953857,1.6167664670659,0.86650228953857t1.6379006692497-0.99330750264178q0.25361042620641-0.59175766114829,0.25361042620641-2.3247622402254l0-5.3892215568862l3.2123987319479,0l0,7.0376893272279q0.063402606551603,2.5995068686157,0.063402606551603,2.6206410707996l0,0.23247622402254z M91.535752025361,68.675889397675q0.44381824586122,0.42268404367735,1.4476928495949,0.42268404367735t1.5850651637901-0.97217330045791t0.58119056005636-2.557238464248q0-2.1979570271222-1.0355759070095-3.0855935188447q-0.42268404367735-0.35928143712575-0.95103909827404-0.35928143712575q-1.120112715745,0-1.7752729834449,0.76083127861923q-0.8453680873547,0.97217330045791-0.8453680873547,2.9165199013737t0.99330750264178,2.874251497006z M93.670306445932,71.148591053188q-1.8598097921803,0-2.9799225079253-1.3737231419514l0,5.3258189503346l-3.191264529764,0l0-14.772807326523l3.0433251144769,0l0.08453680873547,1.5216625572385q0.97217330045791-1.7330045790771,3.1489961253963-1.7330045790771t3.3603381472349,1.437125748503t1.1835153222966,3.8569918985558t-1.2152166255724,4.0789010214864t-3.4343078548785,1.6590348714336z M104.4487495597,68.675889397675q0.44381824586122,0.42268404367735,1.4476928495949,0.42268404367735t1.5850651637901-0.97217330045791t0.58119056005636-2.557238464248q0-2.1979570271222-1.0355759070095-3.0855935188447q-0.42268404367735-0.35928143712575-0.95103909827404-0.35928143712575q-1.120112715745,0-1.7752729834449,0.76083127861923q-0.8453680873547,0.97217330045791-0.8453680873547,2.9165199013737t0.99330750264178,2.874251497006z M106.58330398028,71.148591053188q-1.8598097921803,0-2.9799225079253-1.3737231419514l0,5.3258189503346l-3.191264529764,0l0-14.772807326523l3.0433251144769,0l0.08453680873547,1.5216625572385q0.97217330045791-1.7330045790771,3.1489961253963-1.7330045790771t3.3603381472349,1.437125748503t1.1835153222966,3.8569918985558t-1.2152166255724,4.0789010214864t-3.4343078548785,1.6590348714336z M119.9189855583,64.491317365269q0-1.3948573441353-0.80309968298697-2.071151814019q-0.38041563930962-0.31701303275801-0.97217330045791-0.31701303275801q-1.0567101091934,0-1.5533638605143,0.72912997534343t-0.53892215568862,1.6590348714336l3.8675589996478,0z M115.94575554773,66.456798168369q0,1.0778443113772,0.24304332511448,1.6167664670659t0.67629446988376,0.88763649172244t1.1412469179288,0.34871433603381t1.2257837266643-0.29587883057415t0.7502641775273-1.1835153222966l2.8531172948221,0q-0.08453680873547,0.69742867206763-0.24304332511448,1.1940824233885t-0.77139837971117,1.1306798168369q-1.2046495244805,1.2469179288482-3.7407537865446,1.2469179288482q-1.5639309616062,0-2.8319830926383-0.63402606551603q-0.50722085241282-0.25361042620641-0.92990489609017-0.69742867206763q-1.3737231419514-1.4159915463191-1.3737231419514-4.1634378302219q0-3.5294117647059,2.2190912293061-5.0510743219443q1.2891863332159-0.88763649172244,3.1806974286721-0.88763649172244t3.3392039450511,1.4159915463191t1.4476928495949,4.2902430433251q0,0.44381824586122-0.021134202183868,0.7819654808031l-7.1644945403311,0z M11.521662557238,77.741405424445l4.7340612891863,0l5.7273687918281,12.025361042621l0-12.025361042621l3.0433251144769,0l0,15.280028178936l-4.5015850651638,0l-5.9175766114829-12.680521310321l0,12.680521310321l-3.0855935188447,0l0-15.280028178936z M34.304332511448,86.51209933075q0-1.3948573441353-0.80309968298697-2.071151814019q-0.38041563930962-0.31701303275801-0.97217330045791-0.31701303275801q-1.0567101091934,0-1.5533638605143,0.72912997534343t-0.53892215568862,1.6590348714336l3.8675589996478,0z M30.331102500881,88.47758013385q0,1.0778443113772,0.24304332511448,1.6167664670659t0.67629446988376,0.88763649172244t1.1412469179288,0.34871433603381t1.2257837266643-0.29587883057415t0.7502641775273-1.1835153222966l2.8531172948221,0q-0.08453680873547,0.69742867206763-0.24304332511448,1.1940824233885t-0.77139837971117,1.1306798168369q-1.2046495244805,1.2469179288482-3.7407537865446,1.2469179288482q-1.5639309616062,0-2.8319830926383-0.63402606551603q-0.50722085241282-0.25361042620641-0.92990489609017-0.69742867206763q-1.3737231419514-1.4159915463191-1.3737231419514-4.1634378302219q0-3.5294117647059,2.2190912293061-5.0510743219443q1.2891863332159-0.88763649172244,3.1806974286721-0.88763649172244t3.3392039450511,1.4159915463191t1.4476928495949,4.2902430433251q0,0.44381824586122-0.021134202183868,0.7819654808031l-7.1644945403311,0z M49.584360690384,92.239468122578q0.063402606551603,0.63402606551603,0.08453680873547,0.7819654808031l-3.0433251144769,0l-0.10567101091934-1.4159915463191q-0.50722085241282,0.67629446988376-0.92990489609017,0.99330750264178q-0.95103909827404,0.69742867206763-2.1239873194787,0.69742867206763t-2.0183163085594-0.42268404367735q-1.8809439943642-0.95103909827404-1.9654808030997-3.1067277210285q-0.021134202183868-0.52835505459669-0.021134202183868-0.7819654808031l0-6.6361394857344l3.1701303275801,0l0,6.3613948573441q0,1.0567101091934,0.16907361747094,1.4793941528707q0.38041563930962,0.86650228953857,1.6167664670659,0.86650228953857t1.6379006692497-0.99330750264178q0.25361042620641-0.59175766114829,0.25361042620641-2.3247622402254l0-5.3892215568862l3.2123987319479,0l0,7.0376893272279q0.063402606551603,2.5995068686157,0.063402606551603,2.6206410707996l0,0.23247622402254z M52.522014793942,77.741405424445l3.1067277210285,0l0,9.0031701303276l3.2335329341317-4.4593166607961l3.5294117647059,0l-3.6562169778091,4.6495244804509l3.8886932018316,6.0866502289539l-3.6984853821768,0l-3.2969355406833-5.8119056005636l0,5.8119056005636l-3.1067277210285,0l0-15.280028178936z M64.230362803804,82.327527298344l3.1278619232124,0l0,10.693906305037l-3.1278619232124,0l0-10.693906305037z M64.124691792885,77.762539626629l3.3392039450511,0l0,2.7263120817189l-3.3392039450511,0l0-2.7263120817189z M70.105671010919,84.969302571328q0-1.0355759070095-0.14793941528707-2.6629094751673l2.9376541035576,0l0.063402606551603,2.0500176118352q0.40154984149348-0.92990489609017,0.92990489609017-1.3525889397675q0.9087706939063-0.7185628742515,2.3670306445932-0.7185628742515l0.33814723494188,0l0,2.8108488904544q-0.38041563930962-0.042268404367735-0.73969707643536-0.042268404367735q-1.5005283550546,0.021134202183868-2.1345544205706,0.76083127861923q-0.33814723494188,0.40154984149348-0.41211694258542,0.91933779499824t-0.073969707643536,1.0250088059176l0,5.262416343783l-3.1278619232124,0l0-8.0521310320535z M80.524832687566,87.568809439944q0,3.6350827756252,1.6273335681578,3.6350827756252q0.7819654808031,0,1.2046495244805-0.92990489609017q0.19020781965481-0.40154984149348,0.23247622402254-1.120112715745l3.0855935188447,0q-0.063402606551603,0.95103909827404-0.21134202183868,1.4159915463191q-0.35928143712575,1.0778443113772-1.1623811201127,1.7330045790771q-1.2257837266643,0.99330750264178-3.0433251144769,0.99330750264178q-1.0778443113772,0-1.9866150052836-0.29587883057415t-1.6273335681578-1.120112715745q-1.3737231419514-1.5427967594223-1.3737231419514-4.2057062345896q0-1.8175413878126,0.58119056005636-2.9165199013737t1.3842902430433-1.6696019725255q1.2891863332159-0.95103909827404,3.0010567101092-0.95103909827404t2.9376541035576,0.9087706939063q1.437125748503,1.0989785135611,1.437125748503,3.0855935188447l-3.0644593166608,0q-0.021134202183868-0.14793941528707-0.063402606551603-0.46495244804509t-0.19020781965481-0.65516026769989q-0.38041563930962-0.8453680873547-1.120112715745-0.8453680873547q-0.97217330045791,0-1.3737231419514,1.2680521310321q-0.27474462839028,0.86650228953857-0.27474462839028,2.1345544205706z M91.239873194787,83.806921451215q1.0778443113772-1.6061993659739,3.0855935188447-1.6061993659739q1.0567101091934,0,1.8598097921803,0.42268404367735t1.1623811201127,0.9087706939063q0.7819654808031,1.0567101091934,0.7819654808031,3.0010567101092l0,6.4882000704473l-3.1067277210285,0l0-6.382529059528q0-1.4793941528707-0.73969707643536-2.0500176118352q-0.35928143712575-0.27474462839028-0.8453680873547-0.27474462839028q-0.95103909827404,0-1.5639309616062,0.51778795350476t-0.61289186333216,1.6590348714336l0.021134202183868,6.5304684748151l-3.1489961253963,0l0-15.258893976752l3.1067277210285,0l0,6.0443818245861z M107.44980626981,86.51209933075q0-1.3948573441353-0.80309968298697-2.071151814019q-0.38041563930962-0.31701303275801-0.97217330045791-0.31701303275801q-1.0567101091934,0-1.5533638605143,0.72912997534343t-0.53892215568862,1.6590348714336l3.8675589996478,0z M103.47657625925,88.47758013385q0,1.0778443113772,0.24304332511448,1.6167664670659t0.67629446988376,0.88763649172244t1.1412469179288,0.34871433603381t1.2257837266643-0.29587883057415t0.7502641775273-1.1835153222966l2.8531172948221,0q-0.08453680873547,0.69742867206763-0.24304332511448,1.1940824233885t-0.77139837971117,1.1306798168369q-1.2046495244805,1.2469179288482-3.7407537865446,1.2469179288482q-1.5639309616062,0-2.8319830926383-0.63402606551603q-0.50722085241282-0.25361042620641-0.92990489609017-0.69742867206763q-1.3737231419514-1.4159915463191-1.3737231419514-4.1634378302219q0-3.5294117647059,2.2190912293061-5.0510743219443q1.2891863332159-0.88763649172244,3.1806974286721-0.88763649172244t3.3392039450511,1.4159915463191t1.4476928495949,4.2902430433251q0,0.44381824586122-0.021134202183868,0.7819654808031l-7.1644945403311,0z M112.75449101796,84.039397675238q0-0.9087706939063-0.063402606551603-1.7330045790771l3.0010567101092,0l0.08453680873547,1.6061993659739q0.61289186333216-1.0989785135611,1.9866150052836-1.6273335681578q0.61289186333216-0.23247622402254,1.437125748503-0.23247622402254q1.3737231419514,0,2.388164846777,0.77139837971117t1.1623811201127,2.3353293413174q0.042268404367735,0.59175766114829,0.042268404367735,2.0922860162029l0,5.7696371961958l-3.191264529764,0l0-6.6361394857344q0-0.82423388517083-0.16907361747094-1.1835153222966q-0.44381824586122-0.88763649172244-1.5216625572385-0.88763649172244q-1.4793941528707,0-1.8809439943642,1.437125748503q-0.12680521310321,0.40154984149348-0.12680521310321,1.0144417048256l0,6.2557238464248l-3.1489961253963,0l0-8.770693906305l0-0.21134202183868z M125.18140190208,86.23735470236l5.2412821415992,0l0,2.388164846777l-5.2412821415992,0l0-2.388164846777z M135.1144769285,77.804808030996l3.994364212751,11.983092638253l4.0154984149348-11.983092638253l3.2335329341317,0l-5.6216977809088,15.216625572385l-3.5716801690736,0l-5.6216977809088-15.216625572385l3.5716801690736,0z M147.92180345192,77.741405424445l3.1278619232124,0l0,15.280028178936l-3.1278619232124,0l0-15.280028178936z M163.81472349419,92.239468122578q0.063402606551603,0.63402606551603,0.08453680873547,0.7819654808031l-3.0433251144769,0l-0.10567101091934-1.4159915463191q-0.50722085241282,0.67629446988376-0.92990489609017,0.99330750264178q-0.95103909827404,0.69742867206763-2.1239873194787,0.69742867206763t-2.0183163085594-0.42268404367735q-1.8809439943642-0.95103909827404-1.9654808030997-3.1067277210285q-0.021134202183868-0.52835505459669-0.021134202183868-0.7819654808031l0-6.6361394857344l3.1701303275801,0l0,6.3613948573441q0,1.0567101091934,0.16907361747094,1.4793941528707q0.38041563930962,0.86650228953857,1.6167664670659,0.86650228953857t1.6379006692497-0.99330750264178q0.25361042620641-0.59175766114829,0.25361042620641-2.3247622402254l0-5.3892215568862l3.2123987319479,0l0,7.0376893272279q0.063402606551603,2.5995068686157,0.063402606551603,2.6206410707996l0,0.23247622402254z M169.01373723142,82.348661500528l2.3458964424093,7.3969707643536l2.388164846777-7.3969707643536l3.1067277210285,0l-4.0366326171187,10.482564283198l-1.2891863332159,4.2479746389574l-3.1489961253963,0l1.3525889397675-4.0154984149348l-4.1000352236703-10.715040507221l3.3814723494188,0z M178.50299401198,84.039397675238q0-0.9087706939063-0.063402606551603-1.7330045790771l3.0010567101092,0l0.08453680873547,1.6061993659739q0.61289186333216-1.0989785135611,1.9866150052836-1.6273335681578q0.61289186333216-0.23247622402254,1.437125748503-0.23247622402254q1.3737231419514,0,2.388164846777,0.77139837971117t1.1623811201127,2.3353293413174q0.042268404367735,0.59175766114829,0.042268404367735,2.0922860162029l0,5.7696371961958l-3.191264529764,0l0-6.6361394857344q0-0.82423388517083-0.16907361747094-1.1835153222966q-0.44381824586122-0.88763649172244-1.5216625572385-0.88763649172244q-1.4793941528707,0-1.8809439943642,1.437125748503q-0.12680521310321,0.40154984149348-0.12680521310321,1.0144417048256l0,6.2557238464248l-3.1489961253963,0l0-8.770693906305l0-0.21134202183868z"/></svg>